<svg xmlns="http://www.w3.org/2000/svg" width="500" height="500" viewBox="0 0 500 500"><clipPath id="a"><path d="M0 0h500v500H0z"/></clipPath><g clip-path="url(#a)"><path fill="#fff" d="M-333.792-372.28H840.055V890.711H-333.792z"/><path fill="#4a4d4e" d="M245.72 23.327c39.607-1.18 91.962 7.908 126.624 29.623.355 40.513 3.282 85.67-8.297 124.123-17.76 58.973-56.774 95.543-106.078 122.95-1.611.799-3.579 1.609-5.245 2.35-27.265-14.465-48.266-29.03-69.429-52.522-56.114-62.285-49.876-119.016-49.406-196.58 33.167-20.729 74.045-28.041 111.832-29.944"/><path fill="#fff" d="M236.07 48.66c3.18-.313 7.467-.344 10.752-.456l.026 223.232c-10.165-6.387-17.896-11.878-27.485-19.242l-.001-80.873a1940 1940 0 0 0-35.07-18.482l.067 40.443.05 19.564c-32.09-49.111-27.906-88.794-27.307-145.28a437 437 0 0 1 27.218-9.952l-.141 62.835c11.22 5.24 24.078 11.99 35.054 17.779l.083-87.916a338 338 0 0 1 16.754-1.652"/><path fill="#fff" d="M258.944 47.967c29.202 1.62 64.1 6.407 90.893 19.894-.983 28.762.622 49.639-2.325 79.259-16.747 9.874-37.221 20.167-52.878 30.981 3.977-13.614 8.728-27.875 12.977-41.461 4.499-2.643 9.685-5.302 14.304-7.807l.01-41.075c-11.973-3.085-21.697-5.036-33.9-7.124l-.44.164c-1.512 1.8-.805 16.483-.801 19.831l-.007 36.066.105 115.761a356 356 0 0 1-27.606 19.227z"/><path fill="#0176b7" d="m442.36 446.38 8.456-.059-.037 6.755-421.326.142c-3.731.163-8.76 1.056-9.526-3.958 1.936-2.154 4.885-2.903 7.617-2.856 13.111.222 26.23.161 39.345.16l86.617-.02z"/><path fill="#4a4d4e" d="M164.35 348.956c.633.06.242-.045 1.038.661.85 18.096.158 42.319.1 60.666-2.226.008-8.36.34-9.996-.526-.078-1.882-.085-3.028-.448-4.903-3.032.642-6.75 6.341-12.63 6.474-5.707.129-9.722-2.129-14.027-5.926-7.465-9.667-8.351-24.237-.29-33.8 3.237-3.889 7.805-6.194 12.654-6.385 6.594-.228 10.407 2.954 14.78 7.467-.523-7.565-.277-16.027-.217-23.67z"/><path fill="#fff" d="M142.779 374.644c5.066.104 9.262 2.238 11.522 7.314a15.58 15.58 0 0 1 .223 11.866c-1.825 4.678-4.346 6.316-8.492 8.017-2.053-.033-3.978.02-5.895-.826-3.154-1.413-5.628-4.16-6.838-7.597-3.154-8.852 1.372-16.253 9.48-18.774"/><path fill="#4a4d4e" d="M289.196 351.583c14.081.115 38.7-4.202 42.357 15.579 2.588 14.008-6.01 21.965-17.65 24.438-4.018.38-10.242.204-14.424.221l.005 18.51-10.275.002z"/><path fill="#fff" d="M299.404 361.602c9.763-.17 29.97.197 19.42 17.05-5.641 4.534-12.374 3.417-19.368 3.293z"/><path fill="#4a4d4e" d="M354.306 365.216c11.926-2.694 23.606 5.587 26.01 18.44 2.406 12.853-5.388 25.351-17.354 27.832-11.825 2.452-23.276-5.815-25.654-18.517-2.376-12.704 5.212-25.092 16.998-27.755"/><path fill="#fff" d="M356.49 374.572c2.01-.082 3.598-.128 5.558.53 3.254 1.093 5.934 3.602 7.391 6.917 3.738 8.507-.47 16.126-7.811 19.938-5.805.273-10.65-1.246-13.379-7.322a15.6 15.6 0 0 1-.348-11.977c1.868-4.794 4.421-6.263 8.589-8.086"/><path fill="#4a4d4e" d="M222.652 365.258c11.87-2.594 23.436 5.692 25.79 18.475s-5.404 25.188-17.296 27.658c-11.811 2.455-23.246-5.821-25.584-18.52-2.337-12.695 5.301-25.038 17.09-27.613"/><path fill="#fff" d="M224.611 374.625c5.724-.288 10.54 1.593 13.03 7.587a15.58 15.58 0 0 1 .105 11.795c-1.752 4.324-4.153 6.014-7.99 7.733-2.07.153-3.802.323-5.823-.293-3.28-1.035-6-3.517-7.484-6.83a15.5 15.5 0 0 1-.28-11.667c1.777-4.706 4.32-6.517 8.442-8.325"/><path fill="#4a4d4e" d="m58.53 351.409 9.07-.035c.644 18.64.105 39.957.233 58.923l-10.502-.02-.071-24.655-24.692.037.026 24.66-10.27-.036c.705-18.419.172-40.263.004-58.795l10.17-.037.157 23.786 24.72-.057c.003-6.03-.255-17.583.31-23.106z"/><path fill="#4a4d4e" d="m75.422 365.908 11.026-.046q5.862 16.03 11.376 32.201a2326 2326 0 0 1 10.417-32.148l10.687-.001c-4.208 10.578-8.087 21.865-11.947 32.638-5.573 16.446-8.748 32.872-28.757 23.322.662-1.75 2.575-7.28 3.832-7.21 3.19.18 7.218 3.015 10.107-2.552.84-3.917-14.247-39.962-16.74-46.204"/><path fill="#4a4d4e" d="M431.633 365.365a81 81 0 0 1 2.567-.152c21.064-.86 15.885 29.525 15.928 45.173l-10.361.048c.08-8.542.674-17.69.033-26.147-.627-8.287-5.717-10.694-12.576-8.904-6.126 5.005-5.24 9.889-5.264 17.66-.018 5.761.113 11.564.157 17.328l-10.253-.045-.006-44.407c2.68-.063 8.207-.605 10.213.895.062 1.258.161 2.458.265 3.714.598.02 6.589-4.295 9.297-5.163"/><path fill="#4a4d4e" d="m464.524 353.865 8.258-.068.136 12.13 10.667.009.045 9.608-11.002-.02c.022 6.229-.944 18.065.834 23.72 1.448 4.592 4.937.226 8.753 1.613 1.306 2.395.857 3.455.88 6.52l-.064 1.364c-1.424 1.8-4.246 1.97-6.356 2.39-19.224 3.822-12.877-23.58-14.465-34.748-5.54-1.73-5.172-4.077-4.818-9.844 1.497-1.115 2.164-.656 4.419-.631 1.887-1.68-.359-7.467 1.166-11.568z"/><path fill="#0176b7" d="M473.322 427.377c7.622 12.89 24.042 36.768-.11 42.169-24.528-4.684-7.313-29.875.11-42.169"/><path fill="#fff" d="M464.043 453.713c1.488.96 5.472 7.053 7.037 8.727.69.737.232 1.505.041 2.658-5.599.506-8.448-5.939-7.078-11.385"/><path fill="#4a4d4e" d="m199.838 364.784.772.467c.685 2.797.43 7.742.41 10.806q-.355.058-.71.112l-1.068.192c-15.06 2.576-12.218 21.675-12.05 33.951-3.853-.098-7.313 1.247-9.995-1.22l-.08-2.948.014-40.117 10.058-.04.032 8.151c4.286-5.9 5.635-7.75 12.617-9.354"/><path fill="#4a4d4e" d="m390.245 365.94 10.161-.007-.081 44.429-10.128-.013z"/><path fill="#4a4d4e" d="m256.838 380.35 22.625-.07q.075 5.272-.01 10.544-11.33-.012-22.662.13z"/><path fill="#4a4d4e" d="M392.344 347.49c9.469-.884 13.28 6.777 6.052 12.197-8.724.446-13.49-5.136-6.052-12.196"/></g></svg>